Coordinates
version=1
nRows=16
nColumns=63
inDegrees=yes

Units are S.I. units (second, meters, Newtons, ...)
If the header above contains a line with 'inDegrees', this indicates whether rotational values are in degrees (yes) or radians (no).

endheader
time	pelvis_tilt	pelvis_list	pelvis_rotation	pelvis_tx	pelvis_ty	pelvis_tz	hip_flexion_r	hip_adduction_r	hip_rotation_r	knee_angle_r	knee_angle_r_beta	ankle_angle_r	subtalar_angle_r	mtp_angle_r	hip_flexion_l	hip_adduction_l	hip_rotation_l	knee_angle_l	knee_angle_l_beta	ankle_angle_l	subtalar_angle_l	mtp_angle_l	L5_S1_Flex_Ext	L5_S1_Lat_Bending	L5_S1_axial_rotation	L4_L5_Flex_Ext	L4_L5_Lat_Bending	L4_L5_axial_rotation	L3_L4_Flex_Ext	L3_L4_Lat_Bending	L3_L4_axial_rotation	L2_L3_Flex_Ext	L2_L3_Lat_Bending	L2_L3_axial_rotation	L1_L2_Flex_Ext	L1_L2_Lat_Bending	L1_L2_axial_rotation	L1_T12_Flex_Ext	L1_T12_Lat_Bending	L1_T12_axial_rotation	Abs_r3	Abs_r2	Abs_r1	Abs_t1	Abs_t2	neck_flexion	neck_bending	neck_rotation	arm_flex_r	arm_add_r	arm_rot_r	elbow_flex_r	pro_sup_r	wrist_flex_r	wrist_dev_r	arm_flex_l	arm_add_l	arm_rot_l	elbow_flex_l	pro_sup_l	wrist_flex_l	wrist_dev_l
3.604167	-3.061770	-1.359077	92.085164	0.222589	0.830077	0.622551	-2.715042	-1.653945	4.726933	1.150676	0.020083	15.584064	-9.269673	0.000000	-0.740543	1.599346	14.738258	2.059621	0.035947	12.305582	-15.576524	0.000000	0.215576	-0.061994	-0.697061	0.400345	-0.082451	-0.740627	0.354169	-0.150731	-0.740627	0.246381	-0.150731	-0.609928	0.200183	-0.126417	-0.566362	0.123180	-0.096028	-0.522796	1.539834	-0.701284	-3.876844	0.000000	0.000000	27.538365	5.093326	13.343359	13.713885	-20.107854	51.969079	89.057482	45.551467	9.112372	7.367711	8.470721	-22.193602	33.156784	83.243487	75.437710	-5.770697	-0.240179
3.625000	-2.988653	-1.996466	91.858880	0.222103	0.828654	0.624592	-1.893666	-1.661936	5.278183	1.172399	0.020462	15.260646	-9.933908	0.000000	0.088437	1.618971	14.931279	2.172742	0.037922	11.996708	-16.059626	0.000000	0.268515	-0.060299	-0.782769	0.498659	-0.080198	-0.831692	0.441143	-0.146612	-0.831692	0.306886	-0.146612	-0.684923	0.249343	-0.122962	-0.636000	0.153429	-0.093404	-0.587077	1.917975	-0.682117	-4.353528	0.000000	0.000000	27.908443	5.557392	13.753910	14.052919	-19.731142	54.996628	84.627871	47.827988	8.717144	5.218432	9.913736	-22.983140	39.285071	80.334069	74.815132	-4.693599	-0.836456
3.645833	-2.881496	-2.564177	91.643067	0.221525	0.827418	0.626398	-1.138988	-1.626761	5.725487	1.203040	0.020997	15.025025	-10.362597	0.000000	0.830916	1.595549	15.073797	2.287822	0.039930	11.769748	-16.427850	0.000000	0.321600	-0.050591	-0.857391	0.597244	-0.067286	-0.910977	0.528357	-0.123006	-0.910977	0.367557	-0.123006	-0.750217	0.298638	-0.103165	-0.696630	0.183762	-0.078365	-0.643043	2.297160	-0.572293	-4.768549	0.000000	0.000000	28.158900	5.941858	14.141863	14.603326	-19.174226	57.819663	80.227427	51.733447	7.572079	2.526501	11.561278	-23.376091	45.464391	77.259382	74.553681	-3.729621	-1.782840
3.666667	-2.755120	-3.059001	91.444589	0.220869	0.826396	0.628001	-0.454353	-1.567075	5.987456	1.239639	0.021636	14.908899	-10.448172	0.000000	1.485961	1.545590	15.184493	2.400277	0.041893	11.624594	-16.718074	0.000000	0.371735	-0.036067	-0.916353	0.690350	-0.047969	-0.973625	0.610724	-0.087694	-0.973625	0.424856	-0.087694	-0.801809	0.345193	-0.073548	-0.744537	0.212410	-0.055868	-0.687265	2.655269	-0.408000	-5.096479	0.000000	0.000000	28.312036	6.213335	14.389294	15.285745	-18.486549	60.342166	76.043115	56.911770	5.671220	-0.349107	13.258833	-23.358003	51.371051	74.061338	74.397752	-2.729110	-2.985614
3.687500	-2.620128	-3.486466	91.269248	0.220196	0.825584	0.629402	0.156048	-1.490133	6.219354	1.268874	0.022146	14.858817	-10.455316	0.000000	2.055436	1.484994	15.427581	2.500372	0.043640	11.497314	-17.188695	0.000000	0.417370	-0.019496	-0.956398	0.775098	-0.025929	-1.016172	0.685697	-0.047401	-1.016172	0.477012	-0.047401	-0.836848	0.387570	-0.039755	-0.777073	0.238485	-0.030199	-0.717298	2.981233	-0.220537	-5.319196	0.000000	0.000000	28.391180	6.412925	14.533256	15.998890	-17.698924	62.449690	72.143517	61.770234	3.857312	-3.276967	14.869314	-23.010291	56.895991	70.862411	73.680768	-1.795583	-4.576184
3.708333	-2.489099	-3.855734	91.120895	0.219530	0.824978	0.630561	0.698166	-1.415669	6.231426	1.305343	0.022783	14.922438	-10.121695	0.000000	2.552406	1.414937	15.370163	2.599182	0.045364	11.562234	-17.190404	0.000000	0.458766	-0.003389	-0.976520	0.851975	-0.004508	-1.037552	0.753707	-0.008241	-1.037552	0.524324	-0.008241	-0.854455	0.426010	-0.006912	-0.793422	0.262139	-0.005250	-0.732390	3.276921	-0.038341	-5.431111	0.000000	0.000000	28.421187	6.525322	14.564763	16.651889	-16.838446	64.049897	68.586023	65.776596	2.353706	-5.853649	16.204647	-22.383142	61.667587	67.757475	72.496663	-0.818274	-6.397335
3.729167	-2.371564	-4.168106	91.020466	0.218873	0.824560	0.631470	1.162595	-1.351221	6.075759	1.346051	0.023493	15.046355	-9.589582	0.000000	2.979261	1.351775	15.161374	2.699787	0.047120	11.758271	-16.950147	0.000000	0.494995	0.010446	-0.977903	0.919256	0.013894	-1.039022	0.813228	0.025399	-1.039022	0.565730	0.025399	-0.855665	0.459653	0.021302	-0.794546	0.282840	0.016181	-0.733427	3.535703	0.118171	-5.438803	0.000000	0.000000	28.416393	6.583503	14.558520	17.191029	-15.960726	65.244202	65.494188	69.310084	0.774213	-8.210756	17.263433	-21.578462	65.723912	64.837843	70.687717	0.105043	-8.365726
3.750000	-2.247204	-4.425091	90.956576	0.218212	0.824304	0.632168	1.549341	-1.279126	5.746191	1.383590	0.024148	15.195460	-8.836567	0.000000	3.334200	1.276901	14.791850	2.790269	0.048699	12.069547	-16.498389	0.000000	0.525269	0.024134	-0.967062	0.975477	0.032098	-1.027504	0.862964	0.058679	-1.027504	0.600330	0.058679	-0.846179	0.487765	0.049214	-0.785738	0.300139	0.037383	-0.725297	3.751943	0.273006	-5.378510	0.000000	0.000000	28.414265	6.506701	14.426452	17.639281	-15.140953	66.083658	62.937794	72.112485	-0.749383	-10.105566	18.010719	-20.641386	68.950906	62.182188	68.285583	0.924792	-10.287590
3.770833	-2.149920	-4.625522	90.915089	0.217638	0.824211	0.632691	1.861920	-1.227103	5.461652	1.426065	0.024890	15.293366	-8.212106	0.000000	3.623729	1.224221	14.365103	2.894747	0.050523	12.423569	-15.985321	0.000000	0.548611	0.032193	-0.922388	1.018825	0.042817	-0.980038	0.901313	0.078275	-0.980038	0.627008	0.078275	-0.807090	0.509440	0.065649	-0.749441	0.313476	0.049868	-0.691791	3.918673	0.364178	-5.130048	0.000000	0.000000	28.400193	6.354603	14.174705	17.735450	-14.355528	66.125345	60.898887	74.850856	-1.827441	-11.498790	18.614960	-19.573440	71.433472	59.695625	65.387795	2.137237	-11.861686
3.791667	-2.078692	-4.771669	90.912249	0.217131	0.824244	0.633094	2.103482	-1.193209	5.155054	1.470628	0.025667	15.364462	-7.652113	0.000000	3.856997	1.191387	13.887815	3.018166	0.052677	12.817789	-15.406019	0.000000	0.564547	0.034522	-0.864204	1.048420	0.045915	-0.918216	0.927494	0.083938	-0.918216	0.645220	0.083938	-0.756178	0.524238	0.070398	-0.702165	0.322582	0.053475	-0.648153	4.032501	0.390524	-4.806441	0.000000	0.000000	28.387011	6.128572	13.810131	17.669801	-13.683366	65.866581	59.354990	76.669033	-2.456891	-12.453530	19.014059	-18.395985	73.079777	57.446254	62.108841	3.409468	-12.973176
3.812500	-2.038517	-4.880485	90.923622	0.216711	0.824353	0.633377	2.297773	-1.186099	4.745198	1.517895	0.026492	15.466099	-7.000325	0.000000	4.046495	1.183268	13.323628	3.149093	0.054962	13.256808	-14.733394	0.000000	0.576094	0.030326	-0.792094	1.069864	0.040333	-0.841600	0.946464	0.073734	-0.841600	0.658417	0.073734	-0.693082	0.534961	0.061840	-0.643576	0.329180	0.046974	-0.594070	4.114980	0.343050	-4.405388	0.000000	0.000000	28.379031	5.826665	13.283867	17.483913	-13.147103	65.437833	58.247004	77.224397	-2.646292	-12.749918	19.175605	-17.120212	73.868567	55.412670	58.873650	4.685757	-13.571608
3.833333	-2.043481	-4.947874	90.954979	0.216391	0.824529	0.633590	2.441203	-1.215807	4.320659	1.561677	0.027256	15.597318	-6.391267	0.000000	4.193321	1.213606	12.760006	3.288998	0.057404	13.717032	-14.038360	0.000000	0.582155	0.017710	-0.719210	1.081119	0.023555	-0.764161	0.956422	0.043061	-0.764161	0.665344	0.043061	-0.629309	0.540589	0.036115	-0.584358	0.332643	0.027434	-0.539408	4.158272	0.200345	-4.000033	0.000000	0.000000	28.372663	5.510566	12.640968	17.335097	-12.721409	65.102597	57.340510	76.242783	-2.274652	-12.638819	19.114865	-15.844739	74.034666	53.594486	55.632253	5.789097	-13.808412
3.854167	-2.088328	-4.995455	90.997879	0.216169	0.824724	0.633729	2.561860	-1.281132	3.814684	1.610345	0.028106	15.793577	-5.719316	0.000000	4.316433	1.276085	12.181376	3.425709	0.059790	14.196895	-13.294073	0.000000	0.586635	-0.001642	-0.657059	1.089439	-0.002184	-0.698125	0.963782	-0.003993	-0.698125	0.670465	-0.003993	-0.574927	0.544749	-0.003349	-0.533860	0.335203	-0.002544	-0.492794	4.190273	-0.018575	-3.654365	0.000000	0.000000	28.368959	5.239118	11.999881	17.316448	-12.340542	65.155589	56.498487	73.327440	-1.499645	-12.161761	18.780048	-14.637591	73.466071	51.989261	52.802440	6.733948	-13.601791
3.875000	-2.173150	-5.039094	91.042000	0.216037	0.824897	0.633792	2.678275	-1.384218	3.246200	1.670500	0.029156	16.055343	-5.011046	0.000000	4.428472	1.372311	11.598151	3.551358	0.061983	14.675568	-12.523601	0.000000	0.592483	-0.027024	-0.606560	1.100300	-0.035943	-0.644471	0.973390	-0.065707	-0.644471	0.677149	-0.065707	-0.530740	0.550180	-0.055108	-0.492830	0.338545	-0.041861	-0.454920	4.232045	-0.305706	-3.373507	0.000000	0.000000	28.368693	5.004150	11.386356	17.439750	-11.949021	65.632529	55.580812	68.864214	-0.451086	-11.452780	18.228347	-13.550764	72.303489	50.569328	50.349625	7.456939	-12.937757
3.895833	-2.286004	-5.086898	91.088012	0.215962	0.825022	0.633755	2.794293	-1.514046	2.652404	1.746814	0.030488	16.364907	-4.323670	0.000000	4.535845	1.491793	11.024414	3.665799	0.063980	15.135937	-11.750483	0.000000	0.601775	-0.055758	-0.568888	1.117556	-0.074158	-0.604444	0.988656	-0.135570	-0.604444	0.687768	-0.135570	-0.497777	0.558808	-0.113702	-0.462222	0.343854	-0.086369	-0.426666	4.298416	-0.630745	-3.163986	0.000000	0.000000	28.371674	4.823396	10.886732	17.680852	-11.502218	66.353422	54.495011	64.290094	0.672973	-10.622159	17.522999	-12.595350	70.658459	49.292214	48.353905	7.968348	-11.846419
3.916667	-2.419337	-5.133110	91.130818	0.215921	0.825089	0.633629	2.902182	-1.663321	2.120293	1.844295	0.032189	16.682395	-3.757203	0.000000	4.630336	1.628975	10.476790	3.765784	0.065725	15.554893	-11.020527	0.000000	0.614420	-0.085871	-0.540983	1.141040	-0.114209	-0.574794	1.009431	-0.208787	-0.574794	0.702221	-0.208787	-0.473360	0.570551	-0.175109	-0.439549	0.351080	-0.133014	-0.405737	4.388744	-0.971392	-3.008785	0.000000	0.000000	28.377348	4.658062	10.500861	18.095691	-10.966734	67.441626	53.190358	60.243060	1.595920	-9.750000	16.803469	-11.774539	68.821320	48.121903	46.597545	8.152298	-10.406947
